<svg xmlns="http://www.w3.org/2000/svg" width="900" height="1200" viewBox="0 0 900 1200"><rect width="900" height="1200" fill="#fffdf7"/><g stroke="#d8e5ee" stroke-width="1"><path d="M70 130H840M70 180H840M70 230H840M70 280H840M70 330H840M70 380H840M70 430H840M70 480H840M70 530H840M70 580H840M70 630H840M70 680H840M70 730H840M70 780H840M70 830H840M70 880H840M70 930H840M70 980H840M70 1030H840"/></g><path d="M110 70V1120" stroke="#ef9a9a" stroke-width="2"/><g fill="#243a55" font-family="cursive" font-size="26" font-style="italic"><text x="140" y="115">Working Notes</text><text x="140" y="180">Q4. Goodwill adjustment</text><text x="140" y="240">New partner C brings ₹30,000 as premium.</text><text x="140" y="300">Old ratio A:B = 3:2; new ratio = 2:2:1</text><text x="140" y="370">A's sacrifice = 3/5 − 2/5 = 1/5</text><text x="140" y="420">B's sacrifice = 2/5 − 2/5 = 0</text><text x="140" y="500">Cash A/c Dr. ₹30,000</text><text x="170" y="550">To Premium for Goodwill A/c ₹30,000</text><text x="140" y="640">Premium for Goodwill A/c Dr. ₹30,000</text><text x="170" y="690">To A's Capital A/c ₹30,000</text><text x="140" y="820">Note: gaining/sacrificing ratio needs recheck.</text></g><text x="740" y="1150" fill="#607d8b" font-family="sans-serif" font-size="18">Page 2</text></svg>
